<?xml version="1.0" encoding="utf-8"?>
<!-- Generator: Adobe Illustrator 22.1.0, SVG Export Plug-In . SVG Version: 6.00 Build 0)  -->
<svg version="1.1"
	 id="svg8" inkscape:export-filename="C:\Users\Tyler\Documents\srobo\competetor-booklet-2019\Front-cover.png" inkscape:export-xdpi="100.008" inkscape:export-ydpi="100.008" inkscape:version="0.92.3 (2405546, 2018-03-11)" sodipodi:docname="cover-inside.svg" xmlns:cc="http://creativecommons.org/ns#" xmlns:dc="http://purl.org/dc/elements/1.1/" xmlns:inkscape="http://www.inkscape.org/namespaces/inkscape" xmlns:rdf="http://www.w3.org/1999/02/22-rdf-syntax-ns#" xmlns:sodipodi="http://sodipodi.sourceforge.net/DTD/sodipodi-0.dtd" xmlns:svg="http://www.w3.org/2000/svg"
	 xmlns="http://www.w3.org/2000/svg" xmlns:xlink="http://www.w3.org/1999/xlink" x="0px" y="0px" viewBox="0 0 1190.6 419.5"
	 style="enable-background:new 0 0 1190.6 419.5;" xml:space="preserve">
<style type="text/css">
	.st0{fill:#3270ED;stroke:#000000;stroke-miterlimit:10;}
	.st1{fill:#FFFFFF;}
	.st2{font-family:'Oswald-Regular';}
	.st3{font-size:60px;}
	.st4{fill:#FCFFE9;}
	.st5{font-family:'OpenSansCondensed-Light';}
</style>
<sodipodi:namedview  bordercolor="#666666" borderopacity="1.0" id="base" inkscape:bbox-nodes="true" inkscape:current-layer="layer1" inkscape:cx="830.14096" inkscape:cy="362.07535" inkscape:document-units="mm" inkscape:guide-bbox="true" inkscape:pageopacity="0.0" inkscape:pageshadow="2" inkscape:snap-bbox="false" inkscape:snap-nodes="false" inkscape:snap-text-baseline="true" inkscape:window-height="987" inkscape:window-maximized="1" inkscape:window-width="1680" inkscape:window-x="-8" inkscape:window-y="-8" inkscape:zoom="0.7" pagecolor="#ffffff" showgrid="true" showguides="true" width="420mm">
	
		<sodipodi:guide  id="guide817" inkscape:color="rgb(0,0,255)" inkscape:label="" inkscape:locked="false" orientation="1,0" position="210,0">
		</sodipodi:guide>
	<inkscape:grid  id="grid830" type="xygrid"></inkscape:grid>
</sodipodi:namedview>
<rect x="1" class="st0" width="1189.6" height="419.5"/>
<g id="Symbol-and-Text---White">
	<path id="STUDENT-ROBOTICS" class="st1" d="M744.6,75.7c-2.3,0-4.3-0.3-6-0.8c-1.8-0.6-3.4-1.5-4.9-2.9c-0.8-0.8-1.3-1.6-1.3-2.5
		c0-0.7,0.3-1.4,0.8-1.9c0.5-0.5,1.2-0.8,1.9-0.8c0.6,0,1.1,0.2,1.6,0.6c1.3,1,2.5,1.8,3.7,2.3c1.2,0.5,2.6,0.7,4.2,0.7
		c1.8,0,3.3-0.4,4.5-1.2c1.3-0.8,1.9-1.8,1.9-2.9c0-1.4-0.6-2.5-1.9-3.3c-1.3-0.8-3.2-1.4-6-1.8c-6.9-1-10.3-4.2-10.3-9.6
		c0-2,0.5-3.7,1.6-5.1s2.4-2.6,4.2-3.3c1.8-0.8,3.8-1.2,6-1.2c2,0,3.8,0.3,5.6,0.9s3.2,1.4,4.3,2.4c0.9,0.7,1.4,1.6,1.4,2.5
		c0,0.7-0.3,1.4-0.8,1.9c-0.5,0.5-1.2,0.8-1.9,0.8c-0.5,0-0.9-0.1-1.3-0.4c-0.8-0.7-2-1.3-3.4-1.8c-1.5-0.5-2.8-0.8-3.9-0.8
		c-2,0-3.5,0.4-4.6,1.1c-1.1,0.7-1.6,1.7-1.6,2.9c0,1.3,0.6,2.4,1.7,3.1c1.1,0.7,2.9,1.3,5.2,1.7c2.7,0.5,4.8,1.1,6.5,1.8
		c1.6,0.7,2.8,1.7,3.6,3c0.8,1.3,1.2,3,1.2,5.1c0,2-0.6,3.7-1.7,5.2c-1.1,1.5-2.6,2.6-4.4,3.4C748.7,75.3,746.8,75.7,744.6,75.7z
		 M782.2,42.4c0.8,0,1.5,0.3,2.1,0.8c0.5,0.5,0.8,1.2,0.8,2s-0.3,1.5-0.8,2c-0.5,0.5-1.2,0.7-2.1,0.7h-7.4v24.6c0,0.8-0.3,1.5-0.9,2
		c-0.6,0.5-1.3,0.8-2.2,0.8s-1.6-0.3-2.2-0.8c-0.6-0.5-0.8-1.2-0.8-2V47.8h-7.4c-0.8,0-1.5-0.3-2.1-0.8c-0.5-0.5-0.8-1.2-0.8-2
		c0-0.8,0.3-1.4,0.8-1.9c0.5-0.5,1.2-0.8,2-0.8H782.2z M811.9,42.3c0.8,0,1.5,0.3,2,0.8s0.8,1.2,0.8,2.1v17c0,2.6-0.5,4.9-1.6,6.9
		s-2.6,3.6-4.6,4.7s-4.2,1.7-6.8,1.7c-2.5,0-4.8-0.6-6.8-1.7c-2-1.1-3.5-2.7-4.6-4.7s-1.6-4.3-1.6-6.9v-17c0-0.8,0.3-1.5,0.8-2
		c0.6-0.5,1.3-0.8,2.2-0.8c0.8,0,1.4,0.3,2,0.8s0.8,1.2,0.8,2v17c0,1.5,0.3,2.8,1,4s1.5,2.1,2.7,2.7c1.1,0.6,2.3,0.9,3.6,0.9
		c1.3,0,2.6-0.3,3.8-0.9c1.2-0.6,2.1-1.5,2.8-2.7s1.1-2.5,1.1-4v-17c0-0.8,0.2-1.5,0.7-2.1C810.4,42.6,811.1,42.3,811.9,42.3z
		 M834.3,42.4c2.9,0,5.5,0.7,7.6,2.2s3.7,3.4,4.8,5.9c1.1,2.5,1.7,5.3,1.7,8.3c0,3.1-0.6,5.9-1.7,8.3c-1.1,2.5-2.7,4.5-4.8,5.9
		c-2.1,1.5-4.6,2.2-7.6,2.2H823c-0.8,0-1.5-0.3-2-0.8c-0.5-0.5-0.8-1.2-0.8-2V45.2c0-0.8,0.3-1.5,0.8-2s1.2-0.8,2-0.8H834.3z
		 M833.8,69.9c2.8,0,4.9-1,6.3-3.1c1.4-2.1,2.1-4.7,2.1-7.9c0-3.2-0.7-5.8-2.1-7.9c-1.4-2.1-3.5-3.1-6.3-3.1H826v22.1H833.8z
		 M870.9,69.9c0.8,0,1.5,0.3,2,0.8c0.5,0.5,0.8,1.2,0.8,1.9c0,0.8-0.3,1.4-0.8,1.9c-0.5,0.5-1.2,0.8-2,0.8h-15.7
		c-0.8,0-1.5-0.3-2-0.8c-0.5-0.5-0.8-1.2-0.8-2V45.2c0-0.8,0.3-1.5,0.8-2c0.5-0.5,1.2-0.8,2-0.8h15.7c0.8,0,1.5,0.3,2,0.8
		c0.5,0.5,0.8,1.2,0.8,2c0,0.8-0.3,1.4-0.8,1.9c-0.5,0.5-1.2,0.7-2.1,0.7h-12.7v8h10.6c0.8,0,1.5,0.3,2,0.8c0.5,0.5,0.8,1.2,0.8,2
		c0,0.8-0.3,1.4-0.8,1.9c-0.5,0.5-1.2,0.7-2.1,0.7h-10.6v8.7H870.9z M902.6,42.4c0.8,0,1.4,0.3,1.8,0.8c0.5,0.5,0.7,1.1,0.7,1.9
		v27.4c0,0.8-0.3,1.5-0.8,2c-0.5,0.5-1.2,0.8-2,0.8c-0.4,0-0.9-0.1-1.3-0.2c-0.4-0.1-0.7-0.3-0.9-0.6l-17.2-21.9v20.1
		c0,0.8-0.2,1.4-0.7,1.9s-1.1,0.8-1.9,0.8c-0.8,0-1.4-0.3-1.8-0.8c-0.5-0.5-0.7-1.1-0.7-1.9V45.2c0-0.8,0.3-1.5,0.8-2s1.2-0.8,2-0.8
		c0.5,0,0.9,0.1,1.4,0.3c0.5,0.2,0.8,0.4,1,0.8L900,65.2V45c0-0.8,0.2-1.4,0.7-1.9C901.2,42.6,901.8,42.4,902.6,42.4z M932.3,42.4
		c0.8,0,1.5,0.3,2.1,0.8c0.5,0.5,0.8,1.2,0.8,2s-0.3,1.5-0.8,2s-1.2,0.7-2.1,0.7h-7.4v24.6c0,0.8-0.3,1.5-0.9,2
		c-0.6,0.5-1.3,0.8-2.2,0.8c-0.9,0-1.6-0.3-2.2-0.8c-0.6-0.5-0.8-1.2-0.8-2V47.8h-7.4c-0.8,0-1.5-0.3-2.1-0.8
		c-0.5-0.5-0.8-1.2-0.8-2c0-0.8,0.3-1.4,0.8-1.9c0.5-0.5,1.2-0.8,2-0.8H932.3z M976.1,70.7c0.4,0.3,0.7,0.6,1,1
		c0.2,0.4,0.4,0.8,0.4,1.3c0,0.6-0.2,1.1-0.6,1.6c-0.5,0.6-1.2,0.8-2.2,0.8c-0.8,0-1.4-0.2-2.1-0.5c-2.3-1.3-3.4-3.9-3.4-7.8
		c0-1.1-0.4-2-1.1-2.7s-1.8-1-3.2-1h-8.8v9.1c0,0.8-0.2,1.5-0.7,2.1c-0.5,0.5-1.1,0.8-1.8,0.8c-0.9,0-1.7-0.3-2.4-0.8
		c-0.7-0.5-1-1.2-1-2V45.2c0-0.8,0.3-1.5,0.8-2s1.2-0.8,2-0.8h13.5c1.6,0,3.2,0.4,4.6,1.3c1.4,0.9,2.6,2.1,3.5,3.6s1.3,3.3,1.3,5.2
		c0,1.6-0.4,3.1-1.3,4.6s-1.9,2.7-3.3,3.5c2,1.4,3.1,3.2,3.2,5.5c0.1,0.5,0.1,1,0.1,1.5c0.1,1,0.3,1.7,0.4,2.1
		C975.3,70.1,975.6,70.4,976.1,70.7z M966.4,58.4c0.6,0,1.1-0.3,1.6-0.8c0.5-0.5,1-1.2,1.3-2.1c0.3-0.9,0.5-1.9,0.5-2.9
		c0-0.9-0.2-1.7-0.5-2.4c-0.3-0.7-0.8-1.3-1.3-1.8s-1.1-0.7-1.6-0.7h-10.3v10.7H966.4z M1010.8,58.8c0,3.1-0.7,5.9-2.1,8.5
		c-1.4,2.6-3.3,4.6-5.7,6.1s-5.2,2.3-8.2,2.3c-3,0-5.8-0.8-8.2-2.3s-4.3-3.5-5.7-6.1c-1.4-2.6-2-5.4-2-8.5c0-3.1,0.7-5.9,2-8.5
		c1.4-2.6,3.3-4.6,5.7-6.1c2.4-1.5,5.2-2.3,8.2-2.3c3,0,5.8,0.8,8.2,2.3c2.4,1.5,4.3,3.5,5.7,6.1
		C1010.1,52.9,1010.8,55.7,1010.8,58.8z M1004.7,58.8c0-2.1-0.4-4-1.3-5.7c-0.8-1.7-2-3.1-3.5-4.1c-1.5-1-3.2-1.5-5.1-1.5
		c-1.9,0-3.6,0.5-5.1,1.5c-1.5,1-2.6,2.3-3.5,4.1c-0.8,1.7-1.2,3.6-1.2,5.7c0,2.1,0.4,4,1.2,5.7c0.8,1.7,2,3.1,3.5,4.1
		s3.2,1.5,5.1,1.5c1.9,0,3.6-0.5,5.1-1.5c1.5-1,2.7-2.4,3.5-4.1S1004.7,60.9,1004.7,58.8z M1034.5,57c1.7,0.7,3,1.7,4.1,3
		s1.6,3.1,1.6,5.2c0,3.7-1.1,6.3-3.2,7.8c-2.1,1.5-4.7,2.2-7.6,2.2h-11.7c-0.8,0-1.5-0.3-2-0.8c-0.5-0.5-0.8-1.2-0.8-2V45.2
		c0-0.8,0.3-1.5,0.8-2s1.2-0.8,2-0.8h11.8c6,0,8.9,2.8,8.9,8.4c0,1.4-0.3,2.7-1,3.7C1036.7,55.6,1035.7,56.4,1034.5,57z
		 M1032.3,51.8c0-1.3-0.3-2.2-1-2.9s-1.5-1-2.7-1h-7.8v7.3h7.9c0.9,0,1.8-0.3,2.5-0.9C1031.9,53.7,1032.3,52.8,1032.3,51.8z
		 M1029.3,69.9c1.5,0,2.6-0.4,3.5-1.2c0.8-0.8,1.2-1.9,1.2-3.4c0-1.8-0.5-3.1-1.5-3.6c-1-0.6-2.2-0.8-3.6-0.8h-8.1v9.1H1029.3z
		 M1074.3,58.8c0,3.1-0.7,5.9-2.1,8.5c-1.4,2.6-3.3,4.6-5.7,6.1s-5.2,2.3-8.2,2.3c-3,0-5.8-0.8-8.2-2.3s-4.3-3.5-5.7-6.1
		c-1.4-2.6-2-5.4-2-8.5c0-3.1,0.7-5.9,2-8.5c1.4-2.6,3.3-4.6,5.7-6.1c2.4-1.5,5.2-2.3,8.2-2.3c3,0,5.8,0.8,8.2,2.3
		c2.4,1.5,4.3,3.5,5.7,6.1S1074.3,55.7,1074.3,58.8z M1068.2,58.8c0-2.1-0.4-4-1.3-5.7c-0.8-1.7-2-3.1-3.5-4.1s-3.2-1.5-5.1-1.5
		c-1.9,0-3.6,0.5-5.1,1.5c-1.5,1-2.6,2.3-3.5,4.1c-0.8,1.7-1.2,3.6-1.2,5.7c0,2.1,0.4,4,1.2,5.7c0.8,1.7,2,3.1,3.5,4.1
		c1.5,1,3.2,1.5,5.1,1.5c1.9,0,3.6-0.5,5.1-1.5c1.5-1,2.7-2.4,3.5-4.1C1067.8,62.8,1068.2,60.9,1068.2,58.8z M1098.9,42.4
		c0.8,0,1.5,0.3,2.1,0.8c0.5,0.5,0.8,1.2,0.8,2s-0.3,1.5-0.8,2c-0.5,0.5-1.2,0.7-2.1,0.7h-7.4v24.6c0,0.8-0.3,1.5-0.9,2
		c-0.6,0.5-1.3,0.8-2.2,0.8c-0.9,0-1.6-0.3-2.2-0.8c-0.6-0.5-0.8-1.2-0.8-2V47.8h-7.4c-0.8,0-1.5-0.3-2.1-0.8
		c-0.5-0.5-0.8-1.2-0.8-2c0-0.8,0.3-1.4,0.8-1.9c0.5-0.5,1.2-0.8,2-0.8H1098.9z M1111,72.4c0,0.8-0.3,1.5-0.9,2
		c-0.6,0.5-1.3,0.8-2.1,0.8c-0.8,0-1.5-0.3-2.1-0.8c-0.5-0.5-0.8-1.2-0.8-2V45.2c0-0.8,0.3-1.5,0.8-2c0.6-0.5,1.3-0.8,2.2-0.8
		c0.8,0,1.5,0.3,2,0.8c0.6,0.5,0.8,1.2,0.8,2V72.4z M1139.6,44c1,0.5,1.5,1.3,1.5,2.4c0,0.7-0.2,1.3-0.7,1.9c-0.5,0.7-1.1,1-1.9,1
		c-0.5,0-1.1-0.1-1.6-0.4c-1.5-0.7-3.2-1.1-5-1.1c-2.2,0-4.1,0.5-5.7,1.4c-1.6,0.9-2.9,2.2-3.8,3.9s-1.3,3.6-1.3,5.8
		c0,3.7,1,6.5,3,8.4c2,1.9,4.6,2.9,7.8,2.9c1.9,0,3.6-0.4,5-1.1c0.6-0.3,1.1-0.4,1.5-0.4c0.8,0,1.5,0.3,2.1,1
		c0.5,0.6,0.7,1.2,0.7,1.9c0,0.5-0.1,1-0.4,1.4c-0.3,0.4-0.6,0.7-1.1,0.9c-2.4,1.2-5,1.8-7.8,1.8c-3.1,0-5.9-0.7-8.5-2
		s-4.6-3.2-6.2-5.8c-1.5-2.5-2.3-5.6-2.3-9.2c0-3.2,0.7-6.1,2.2-8.6c1.5-2.5,3.5-4.5,6-5.9c2.6-1.4,5.5-2.1,8.7-2.1
		C1134.6,42.1,1137.2,42.7,1139.6,44z M1155.1,75.7c-2.3,0-4.3-0.3-6-0.8c-1.8-0.6-3.4-1.5-4.9-2.9c-0.8-0.8-1.3-1.6-1.3-2.5
		c0-0.7,0.3-1.4,0.8-1.9c0.5-0.5,1.2-0.8,1.9-0.8c0.6,0,1.1,0.2,1.6,0.6c1.3,1,2.5,1.8,3.7,2.3c1.2,0.5,2.6,0.7,4.2,0.7
		c1.8,0,3.3-0.4,4.5-1.2c1.3-0.8,1.9-1.8,1.9-2.9c0-1.4-0.6-2.5-1.9-3.3c-1.3-0.8-3.2-1.4-6-1.8c-6.9-1-10.3-4.2-10.3-9.6
		c0-2,0.5-3.7,1.6-5.1c1-1.5,2.4-2.6,4.2-3.3c1.8-0.8,3.8-1.2,6-1.2c2,0,3.8,0.3,5.6,0.9s3.2,1.4,4.3,2.4c0.9,0.7,1.4,1.6,1.4,2.5
		c0,0.7-0.3,1.4-0.8,1.9c-0.5,0.5-1.2,0.8-1.9,0.8c-0.5,0-0.9-0.1-1.3-0.4c-0.8-0.7-2-1.3-3.4-1.8s-2.8-0.8-3.9-0.8
		c-2,0-3.5,0.4-4.6,1.1c-1.1,0.7-1.6,1.7-1.6,2.9c0,1.3,0.6,2.4,1.7,3.1c1.1,0.7,2.9,1.3,5.2,1.7c2.7,0.5,4.8,1.1,6.5,1.8
		c1.6,0.7,2.8,1.7,3.6,3s1.2,3,1.2,5.1c0,2-0.6,3.7-1.7,5.2c-1.1,1.5-2.6,2.6-4.4,3.4C1159.2,75.3,1157.3,75.7,1155.1,75.7z"/>
	<path id="Combined-Shape" class="st1" d="M708.1,87.3c-3.5,4.3-7.7,8.1-12.7,10.9c-14,8.1-31.2,8.1-45.1,0
		c-4.8-2.8-9-6.4-12.4-10.5c18.1-18.8,33-14.2,33-20.8c0-6.9-25.8-11.5-25.8-16.3c0-4.8,15.1-8.4,28-8.5c12.9,0,28,3.7,28,8.5
		c0,4.8-25.8,9.4-25.8,16.3C675.4,73.4,690.2,68.9,708.1,87.3L708.1,87.3z M711.8,81.8c-9.6-8-18.5-13-26.8-15
		c4.1-3.3,27.2-11.7,27.2-16.2c0-4.5-19.9-15.2-38.9-15.3v0c-0.1,0-0.1,0-0.2,0c-0.1,0-0.1,0-0.2,0v0c-19,0.1-38.9,10.8-38.9,15.3
		c0,4.5,23.1,12.9,27.2,16.2c-8.4,2-17.5,7.1-27.3,15.4c-4.1-6.9-6.3-14.8-6.3-23.1c0-16.1,8.6-31,22.6-39.1c14-8.1,31.2-8.1,45.1,0
		c14,8.1,22.6,23,22.6,39.1C717.9,67.2,715.8,75,711.8,81.8z"/>
</g>
<text transform="matrix(1 0 0 1 854.8766 179.0971)"><tspan x="0" y="0" class="st1 st2 st3">2019</tspan><tspan x="-43.7" y="72" class="st1 st2 st3">CALDERA</tspan></text>
<text transform="matrix(1 0 0 1 727.0306 349.8373)" class="st4 st5 st3">Competitor Booklet</text>
</svg>
