<?xml version="1.0" encoding="utf-8"?>
<!-- Generator: Adobe Illustrator 22.1.0, SVG Export Plug-In . SVG Version: 6.00 Build 0)  -->
<svg version="1.1"
	 id="svg8" inkscape:export-filename="C:\Users\Tyler\Documents\srobo\competetor-booklet-2019\Front-cover.png" inkscape:export-xdpi="100.008" inkscape:export-ydpi="100.008" inkscape:version="0.92.3 (2405546, 2018-03-11)" sodipodi:docname="cover-inside.svg" xmlns:cc="http://creativecommons.org/ns#" xmlns:dc="http://purl.org/dc/elements/1.1/" xmlns:inkscape="http://www.inkscape.org/namespaces/inkscape" xmlns:rdf="http://www.w3.org/1999/02/22-rdf-syntax-ns#" xmlns:sodipodi="http://sodipodi.sourceforge.net/DTD/sodipodi-0.dtd" xmlns:svg="http://www.w3.org/2000/svg"
	 xmlns="http://www.w3.org/2000/svg" xmlns:xlink="http://www.w3.org/1999/xlink" x="0px" y="0px" viewBox="0 0 1190.6 419.5"
	 style="enable-background:new 0 0 1190.6 419.5;" xml:space="preserve">
<style type="text/css">
	.st0{font-family:'OpenSans-Regular';}
	.st1{font-size:18px;}
	.st2{stroke:#000000;}
	.st3{stroke:#FFFFFF;stroke-miterlimit:10;}
	.st4{stroke:#000000;stroke-miterlimit:10;}
	.st5{font-family:'Oswald-Regular';}
	.st6{fill:none;}
</style>
<sodipodi:namedview  bordercolor="#666666" borderopacity="1.0" id="base" inkscape:bbox-nodes="true" inkscape:current-layer="layer1" inkscape:cx="830.14096" inkscape:cy="362.07535" inkscape:document-units="mm" inkscape:guide-bbox="true" inkscape:pageopacity="0.0" inkscape:pageshadow="2" inkscape:snap-bbox="false" inkscape:snap-nodes="false" inkscape:snap-text-baseline="true" inkscape:window-height="987" inkscape:window-maximized="1" inkscape:window-width="1680" inkscape:window-x="-8" inkscape:window-y="-8" inkscape:zoom="0.7" pagecolor="#ffffff" showgrid="true" showguides="true" width="420mm">
	
		<sodipodi:guide  id="guide817" inkscape:color="rgb(0,0,255)" inkscape:label="" inkscape:locked="false" orientation="1,0" position="210,0">
		</sodipodi:guide>
	<inkscape:grid  id="grid830" type="xygrid"></inkscape:grid>
</sodipodi:namedview>
<g id="layer1" transform="translate(0,-149)" inkscape:groupmode="layer" inkscape:label="Layer 1">
	<text transform="matrix(1 0 0 1 30.001 201.0484)" class="st0 st1">Message from the Core team goes here</text>
	<text transform="matrix(1 0 0 1 30.001 388.5484)" class="st0 st1">Message from the Trustees goes here</text>
	<g id="layer1-2" transform="matrix(0.15425484,0,0,0.15425484,204.69852,130.43772)">
		<path id="path184" inkscape:connector-curvature="0" class="st2" d="M3319.9,1286.5v-438"/>
		<path id="path4741" inkscape:connector-curvature="0" class="st3" d="M2927.6,848.1c-120.3,0-217.7,97.9-217.7,218.8
			s97.4,218.8,217.7,218.8s217.8-98,217.8-218.9c0.6-120.2-96.4-218.2-216.6-218.7C2928.4,848.1,2928,848.1,2927.6,848.1z
			 M3053.1,1169.8c0,0-10-45.4-26.2-72.2c-8.7-14.7-22.3-26.7-40.5-26.4c-12.8,0.3-23.8,7.4-37.7,26.8
			c-8.3,11.6-21.2,41.2-21.2,41.2s-12.7-29.7-21-41.2c-13.9-19.4-24.9-26.5-37.6-26.8c-18.2-0.3-31.8,11.7-40.6,26.4
			c-16.2,27-26.2,72.2-26.2,72.2h-14.8l78.9-260.1l60.9,203.1l0.5,0.5l0.5-0.5l60.9-203l78.9,260.1L3053.1,1169.8z"/>
		<g id="g3108">
			<g id="text190">
				<path id="path3377" inkscape:connector-curvature="0" class="st4" d="M3554.9,960.1c2-5.7,5.9-10.6,11.1-13.8
					c5.1-3.1,11-4.7,17-4.5c6.1-0.2,11.9,2.3,15.8,6.9c4,4.6,6,12.9,6,24.9v45.7h-6.2v-45.4c0-10.5-1.4-17.5-4.3-21.2
					c-2.7-3.6-7-5.7-11.5-5.5c-6.7-0.1-13.2,2.2-18.4,6.4c-5.8,4.6-8.7,12.2-8.7,22.8v42.9h-6.2v-45.4c0-10.1-1.4-17-4.2-20.9
					c-2.6-3.8-7-6-11.6-5.8c-6.7-0.1-13.2,2.2-18.4,6.5c-5.8,4.6-8.7,12.2-8.7,22.7v42.9h-6.2v-75.7h6.2v14.2
					c2.1-4.9,5.7-9,10.3-11.8c5.2-3,11.2-4.5,17.2-4.3c4.6,0.1,9.1,1.6,12.8,4.5C3550.1,948.4,3552.8,953.1,3554.9,960.1
					L3554.9,960.1z"/>
			</g>
			<g id="text194">
				<path id="path3380" inkscape:connector-curvature="0" class="st4" d="M3672.6,956.6c-7.4-10.1-21.6-12.2-31.7-4.8
					c-1.8,1.3-3.4,2.9-4.8,4.8c-4.5,6.1-6.7,14.4-6.7,24.9s2.2,19.2,6.7,25.3c7.4,10.1,21.6,12.3,31.7,4.8c1.8-1.4,3.5-3,4.8-4.8
					c4.5-6.2,6.7-14.7,6.7-25.3C3679.8,972.6,3677.5,963.9,3672.6,956.6z M3654.3,941.8c8.9-0.3,17.5,3.7,22.8,10.8
					c5.7,7.3,8.5,16.9,8.5,28.9c0,12.4-2.8,22.2-8.5,29.3c-5.4,7.1-13.9,11.2-22.8,10.8c-9,0.3-17.5-3.7-23-10.7
					c-5.7-7.2-8.5-17-8.4-29.4c0-12.1,2.8-21.8,8.5-28.9C3636.9,945.4,3645.4,941.4,3654.3,941.8L3654.3,941.8z"/>
			</g>
			<g id="text198">
				<path id="path3383" inkscape:connector-curvature="0" class="st4" d="M3715.3,922.1v21.5h25.5v5.3h-25.5v45.4
					c-0.3,4.2,0.4,8.3,2.2,12.1c2.7,4.8,7.9,7.8,13.4,7.6h10v5.4h-9.7c-5.7,0.2-11.3-1.8-15.7-5.4c-4.3-3.6-6.5-10.1-6.5-19.5V949
					h-9.1v-5.3h9.1v-21.5L3715.3,922.1z"/>
			</g>
			<g id="text202">
				<path id="path3386" inkscape:connector-curvature="0" class="st4" d="M3804,956.6c-7.4-10.1-21.6-12.2-31.7-4.8
					c-1.8,1.4-3.5,3-4.8,4.8c-4.5,6.1-6.7,14.4-6.7,24.9s2.2,19.2,6.7,25.3c7.4,10.1,21.6,12.3,31.7,4.9c1.9-1.4,3.5-3,4.9-4.9
					c4.5-6.2,6.7-14.7,6.7-25.3C3811.2,972.6,3808.8,963.9,3804,956.6z M3785.6,941.8c8.9-0.3,17.3,3.7,22.7,10.8
					c5.7,7.3,8.5,16.9,8.5,28.9c0,12.4-2.8,22.2-8.5,29.3c-5.3,7.1-13.8,11.1-22.7,10.8c-9,0.4-17.6-3.6-23-10.7
					c-5.7-7.2-8.5-17-8.5-29.4c0-12.1,2.8-21.8,8.5-28.9C3768.1,945.4,3776.7,941.4,3785.6,941.8L3785.6,941.8z"/>
			</g>
			<g id="text206">
				<path id="path3389" inkscape:connector-curvature="0" class="st4" d="M3881.1,948.9c-1.3-0.6-2.7-1-4.1-1.3
					c-1.9-0.3-3.9-0.4-5.8-0.4c-7.3-0.2-14.3,3-19,8.5c-3.9,4.6-5.9,12.5-5.9,23.6v39.9h-6.1v-75.7h6.1v14.2c2-4,4.9-7.5,8.5-10.3
					c5.2-3.8,11.4-5.8,17.9-5.7c1.5,0,3.1,0.1,4.6,0.2c1.3,0,2.6,0.2,3.9,0.5L3881.1,948.9L3881.1,948.9z"/>
			</g>
			<g id="text210">
				<path id="path3392" inkscape:connector-curvature="0" class="st4" d="M3935.3,956.6c-7.4-10.1-21.6-12.2-31.7-4.8
					c-1.8,1.3-3.4,2.9-4.8,4.8c-4.5,6.1-6.7,14.4-6.7,24.9s2.2,19.2,6.7,25.3c7.4,10.1,21.6,12.3,31.7,4.8c1.8-1.4,3.5-3,4.8-4.8
					c4.5-6.2,6.8-14.7,6.8-25.3C3942.5,972.6,3940.1,963.9,3935.3,956.6z M3916.9,941.8c8.9-0.3,17.5,3.7,22.8,10.8
					c5.7,7.3,8.5,16.9,8.5,28.9c0,12.4-2.8,22.2-8.5,29.3c-5.4,7.1-13.9,11.2-22.8,10.8c-9,0.3-17.5-3.7-23-10.7
					c-5.7-7.2-8.5-17-8.4-29.4c0-12.1,2.8-21.8,8.5-28.9C3899.5,945.4,3908,941.4,3916.9,941.8L3916.9,941.8z"/>
			</g>
			<g id="text214">
				<path id="path3395" inkscape:connector-curvature="0" class="st4" d="M3971.3,914.1h6.2v105.2h-6.2V914.1z"/>
			</g>
			<g id="text218">
				<path id="path3398" inkscape:connector-curvature="0" class="st4" d="M4036.5,976.5c-10,0-17.2,1.8-21.6,5.3
					c-4.6,3.9-7,9.7-6.6,15.6c0,6.7,1.8,11.4,5.5,14.2c3.7,2.8,8.3,4.3,13,4.2c8.6,0.5,16.7-4.2,20.4-12c3.9-6.9,6.1-14.7,6.3-22.7
					v-4.7L4036.5,976.5z M4059.7,976.1v43.2h-6.2v-20.6c-3.5,10-8.1,16.4-13.8,19.2c-4.2,2.1-8.9,3.3-13.6,3.3
					c-6.5,0.4-12.8-1.8-17.8-6c-4.3-4.1-6.5-10-6.5-17.9c-0.3-7.2,2.9-14.2,8.5-18.8c5.7-4.7,14.9-7.1,27.6-7.1h15.2v-1.2
					c0.3-6-1.8-11.9-5.7-16.6c-3.8-4.3-10-6.5-18.8-6.5c-4.5,0-9,0.9-13.2,2.4c-4,1.6-7.8,3.7-11.3,6.3v-6.7c3.5-2.2,7.3-4,11.3-5.3
					c4.7-1.4,9.6-2.2,14.5-2.2c8.1-0.3,16,2.6,22,8.1C4057.2,954.5,4059.7,963.3,4059.7,976.1L4059.7,976.1z"/>
			</g>
			<g id="text222">
				<path id="path3401" inkscape:connector-curvature="0" class="st4" d="M3533,1075.6v5.3h-8.8c-3.8-0.3-7.6,1-10.5,3.6
					c-3,2.8-4.5,7.6-4.5,13.9v6.7h20.4v5.3h-20.4v70.4h-6.3v-70.4h-11.9v-5.3h11.9v-5.3c0-8.4,1.9-14.5,5.7-18.4
					c4.2-4,9.9-6,15.7-5.7L3533,1075.6z"/>
			</g>
			<g id="text226">
				<path id="path3404" inkscape:connector-curvature="0" class="st4" d="M3595.7,1118c-7.4-10.1-21.6-12.2-31.7-4.8
					c-1.8,1.3-3.4,2.9-4.8,4.8c-4.5,6.1-6.8,14.4-6.8,24.9c0,10.5,2.2,18.9,6.7,25.3c7.4,10.1,21.6,12.3,31.7,4.9
					c1.9-1.4,3.5-3,4.9-4.9c4.5-6.2,6.8-14.6,6.7-25.3C3602.9,1134.1,3600.5,1125.4,3595.7,1118L3595.7,1118z M3577.4,1103.2
					c8.9-0.3,17.5,3.7,22.8,10.8c5.7,7.3,8.5,16.9,8.5,28.9c0,12.4-2.8,22.2-8.5,29.3c-5.4,7.1-13.9,11.1-22.8,10.8
					c-8.9,0.4-17.5-3.6-23-10.6c-5.7-7.2-8.5-17-8.4-29.4c0-12.1,2.8-21.7,8.5-28.9C3559.9,1106.9,3568.5,1102.9,3577.4,1103.2z"/>
			</g>
			<g id="text230">
				<path id="path3407" inkscape:connector-curvature="0" class="st4" d="M3631.8,1150.7V1105h6.2v45.4c0,9.8,1.6,16.7,4.7,20.7
					c3.4,4.1,8.6,6.4,13.9,6c6.7,0.2,13.3-2.1,18.4-6.5c5.1-4.4,7.7-11.9,7.7-22.7V1105h6.2v75.7h-6.2v-14.2
					c-1.9,4.2-4.9,7.9-8.7,10.5c-5.2,3.6-11.3,5.5-17.6,5.5c-6.8,0.3-13.4-2.5-17.9-7.6C3634,1169.8,3631.8,1161.8,3631.8,1150.7
					L3631.8,1150.7z"/>
			</g>
			<g id="text234">
				<path id="path3410" inkscape:connector-curvature="0" class="st4" d="M3770,1135v45.7h-6.2v-45.2c0-9.8-1.6-16.7-4.7-20.7
					c-3.4-4.1-8.6-6.4-13.9-6c-6.7-0.2-13.3,2.1-18.4,6.5c-5.2,4.4-7.7,12-7.7,22.7v42.8h-6.2V1105h6.2v14.2
					c1.9-4.2,4.9-7.9,8.7-10.5c5.2-3.6,11.3-5.5,17.6-5.5c6.8-0.3,13.4,2.5,17.9,7.6C3767.8,1115.9,3770,1124,3770,1135L3770,1135z"
					/>
			</g>
			<g id="text238">
				<path id="path3413" inkscape:connector-curvature="0" class="st4" d="M3849.2,1122.3v-46.7h6.1v105.1h-6.1v-17.2
					c-1.9,5.2-5.1,9.9-9.3,13.5c-4.1,3.4-9.1,5.4-14.4,5.7c-8.8,0.1-17.1-4-22.4-10.9c-6-7.3-8.9-16.9-8.9-28.8
					c0-11.9,3-21.5,8.9-28.8c5.3-7,13.6-11,22.4-10.9c5.3,0.3,10.3,2.3,14.4,5.7C3844.1,1112.5,3847.3,1117.1,3849.2,1122.3
					L3849.2,1122.3z M3808.6,1116.6c-5.2,5.3-7.9,14.1-7.9,26.3s2.6,21.1,7.9,26.4c7.1,9,20.2,10.6,29.3,3.4c1.3-1,2.4-2.1,3.4-3.4
					c5.2-5.3,7.8-14.1,7.8-26.4c0-12.3-2.6-21.1-7.8-26.3c-7.1-9-20.2-10.6-29.3-3.4C3810.8,1114.2,3809.6,1115.4,3808.6,1116.6z"/>
			</g>
			<g id="text242">
				<path id="path3416" inkscape:connector-curvature="0" class="st4" d="M3905.3,1138c-10,0-17.2,1.8-21.6,5.4
					c-4.6,3.9-7,9.6-6.6,15.6c0,6.7,1.8,11.3,5.5,14.2c3.7,2.8,8.3,4.3,13,4.2c8.6,0.5,16.7-4.3,20.4-12c3.9-6.9,6.1-14.7,6.3-22.7
					v-4.7L3905.3,1138z M3928.5,1137.5v43.2h-6.2v-20.6c-3.5,10.1-8.1,16.4-13.8,19.2c-4.2,2.1-8.9,3.3-13.6,3.3
					c-6.5,0.4-12.8-1.8-17.8-6c-4.3-4-6.5-10-6.5-17.8c-0.3-7.2,2.9-14.2,8.5-18.8c5.7-4.7,14.9-7.1,27.6-7.1h15.4v-1.2
					c0.3-6-1.8-11.9-5.7-16.6c-3.8-4.3-10-6.5-18.8-6.5c-4.5,0-9,0.9-13.2,2.4c-4,1.6-7.8,3.7-11.3,6.3v-6.7c3.5-2.3,7.3-4,11.3-5.3
					c4.7-1.4,9.6-2.2,14.5-2.2c8.1-0.3,16,2.6,22,8.1C3926.1,1116,3928.5,1124.7,3928.5,1137.5L3928.5,1137.5z"/>
			</g>
			<g id="text246">
				<path id="path3419" inkscape:connector-curvature="0" class="st4" d="M3954.9,1083.5v21.5h25.5v5.3h-25.5v45.4
					c-0.3,4.2,0.4,8.3,2.2,12.1c2.7,4.8,7.9,7.8,13.4,7.6h10v5.3h-9.7c-5.7,0.1-11.3-1.8-15.8-5.4c-4.3-3.6-6.5-10.1-6.5-19.5v-45.4
					h-9v-5.3h9v-21.5H3954.9z"/>
			</g>
			<g id="text250">
				<path id="path3422" inkscape:connector-curvature="0" class="st4" d="M3998.5,1105h6.2v75.7h-6.2V1105z M3998.5,1075.6h6.2v8.5
					h-6.2V1075.6z"/>
			</g>
			<g id="text254">
				<path id="path3425" inkscape:connector-curvature="0" class="st4" d="M4078.5,1118c-7.4-10.1-21.6-12.2-31.7-4.8
					c-1.8,1.4-3.5,3-4.8,4.8c-4.5,6.1-6.7,14.4-6.7,24.9c0,10.5,2.2,18.9,6.7,25.3c7.4,10.1,21.6,12.3,31.7,4.9
					c1.9-1.4,3.5-3,4.9-4.9c4.5-6.2,6.7-14.6,6.7-25.3C4085.7,1134.1,4083.3,1125.4,4078.5,1118z M4060.2,1103.2
					c8.9-0.3,17.3,3.7,22.7,10.8c5.7,7.3,8.5,16.9,8.5,28.9c0,12.4-2.8,22.2-8.5,29.3c-5.4,7.1-13.8,11.1-22.7,10.8
					c-9,0.4-17.6-3.6-23-10.7c-5.7-7.2-8.5-17-8.5-29.4c0-12.1,2.8-21.7,8.5-28.9C4042.6,1106.8,4051.2,1102.8,4060.2,1103.2z"/>
			</g>
			<g id="text258">
				<path id="path3428" inkscape:connector-curvature="0" class="st4" d="M4171.7,1135v45.7h-6.2v-45.2c0-9.8-1.6-16.7-4.7-20.7
					c-3.4-4.1-8.6-6.4-13.9-6c-6.7-0.2-13.3,2.1-18.4,6.5c-5.1,4.4-7.7,11.9-7.7,22.7v42.8h-6.2V1105h6.2v14.2
					c1.9-4.2,4.9-7.9,8.7-10.5c5.2-3.6,11.3-5.5,17.7-5.5c6.8-0.3,13.4,2.5,17.9,7.6C4169.5,1115.9,4171.7,1124,4171.7,1135
					L4171.7,1135z"/>
			</g>
		</g>
	</g>
	<g id="g4829" transform="matrix(0.167821,0,0,0.167821,302.69147,87.037389)">
		<path id="path4781" inkscape:connector-curvature="0" d="M3625.1,1210.9c14.1,7.1,24.6,12.7,31.5,16.8c7.2,4.4,13.3,10.4,18,17.4
			c5.1,7.4,7.7,17.6,7.7,30.5c0.4,17.2-7.2,33.5-20.6,44.3c-12.8,11.2-29.3,17.4-46.3,17.4c-9.7,0.3-19.4-1.2-28.6-4.2
			c-9.5-3.6-18.8-7.8-27.7-12.7l-0.9-45.2c3.8,13,10.6,24.9,19.7,34.9c8.9,9.6,20.7,14.5,35.4,14.5c14.7,0,25.2-4.3,31.5-12.9
			c6.2-7.9,9.6-17.7,9.7-27.7c0-12.9-3.2-21.8-9.7-26.6s-20.3-12.6-41.5-23c-15.4-7.7-26.6-15.7-33.6-24.1
			c-7.2-8.6-10.9-19.5-10.6-30.7c0-17,6.4-30.2,19.2-39.5c12.6-9.3,27.8-14.3,43.5-14.2c17.2,0,31.6,3.9,43.3,11.7l1.5,39.8
			c-2.8-10.2-8.5-19.4-16.4-26.5c-8.7-8.5-20.5-13-32.7-12.7c-11.5,0-20,3.4-25.5,10.1c-5.2,6.1-8.1,13.9-8.2,21.9
			c-0.4,7.8,2.7,15.4,8.4,20.8C3597.6,1196,3608.6,1202.6,3625.1,1210.9L3625.1,1210.9z"/>
		<path id="path4783" inkscape:connector-curvature="0" d="M3760.7,1191.6c25.6-0.8,49,14.2,58.9,37.8c4.8,11.2,7.3,23.2,7.2,35.4
			c-0.1,12.1-3,24-8.5,34.8c-5.3,11.1-13.4,20.6-23.6,27.5c-10.2,6.9-22.2,10.4-34.5,10.3c-21.8,0-38.3-7.4-49.5-22.2
			c-18.7-24.7-22-57.7-8.5-85.6c5.2-11.1,13.4-20.7,23.6-27.5c10.4-7,22.6-10.6,35.1-10.4H3760.7z M3757.9,1202.6
			c-12.5,0.6-21.9,7-28.2,19.2c-6.3,12.2-9.1,27-8.5,44.5c0.6,17,4.6,31.3,12,42.9c7.4,11.6,17,17,28.9,16.3
			c12.5-0.6,21.9-6.8,28.3-18.6c6.4-11.8,9.2-26.5,8.5-44.2c-0.4-10.4-2.3-20.7-5.7-30.5c-2.7-8.2-7.3-15.6-13.5-21.6
			c-6-5.6-14-8.5-22.1-8L3757.9,1202.6z"/>
		<path id="path4785" inkscape:connector-curvature="0" d="M4012.4,1167.3v27.8h41.8l-10.6,12.7h-31.8v85.2c0,21,9.2,31.5,27.6,31.4
			c3.8,0.3,7.7-0.4,11.2-1.8c2.9-1.7,5.7-3.8,8.2-6.1c0,4.3-3.1,8.8-9.4,13.5c-6.1,4.7-13.6,7.2-21.3,7.1
			c-11.3,0.5-22.3-3.7-30.5-11.6c-7.8-7.8-11.7-18.5-11.7-32.2v-85.6h-13L4012.4,1167.3L4012.4,1167.3z"/>
		<path id="path4787" inkscape:connector-curvature="0" d="M4149.7,1191.5c11.7-0.3,23.2,3.6,32.3,11.1c8.8,7.3,13.2,17.7,13.2,31
			v89.6c-0.2,2.3,0.3,4.7,1.5,6.7c1.9,1.9,4,3.5,6.3,4.8h-41.7c5.5-3,8.2-6.9,8.2-11.5v-79.7c0.4-8.9-2.2-17.7-7.4-24.9
			c-5-6.3-13.3-9.4-25-9.4c-12.8,0.1-24.9,5.9-33,15.8v98.2c-0.1,2.3,0.5,4.5,1.8,6.3c1.9,2.1,4.1,3.9,6.7,5.2h-42.9
			c5.3-2.8,7.9-6.7,7.9-11.5v-177.9c0.3-2.9-0.6-5.7-2.6-7.9c-2.5-1.8-5.2-3.2-8.1-4.3l37-7.3v87.2
			C4120.5,1198.7,4135.8,1191.5,4149.7,1191.5L4149.7,1191.5z"/>
		<path id="path4789" inkscape:connector-curvature="0" d="M4510,1191.6c11.3-0.1,22.4,3.7,31.2,10.8c9.2,7.3,13.8,17.5,13.8,30.6
			v90.2c-0.1,2.3,0.6,4.6,2,6.5c1.6,2,3.6,3.7,5.9,5h-42.2c5.7-3.4,8.5-7.3,8.5-11.3v-81.2c0.4-8.7-2.3-17.2-7.5-24.1
			c-5.1-6.2-13.1-9.2-24.2-9.2c-12.7,0-23.6,6.4-32.7,19.1c0.5,1.5,0.7,3,0.6,4.5v90.7c-0.1,2.3,0.6,4.6,2,6.5c1.6,2,3.6,3.7,5.9,5
			h-42.2c5.2-3,7.9-6.8,7.9-11.3v-82.4c0-21.4-10.5-32.1-31.5-32.1c-11.9,0-22.1,5.1-30.6,15.4v99c-0.2,2.3,0.5,4.5,1.8,6.3
			c2,2,4.2,3.7,6.7,5.1h-42.5c5.3-3,7.9-6.8,7.9-11.3v-112.5c0.3-3.1-0.8-6.3-3-8.5c-2.3-1.8-5-3-7.9-3.6l36.9-7.3v20.7
			c6.4-5.4,13.2-10.3,20.4-14.5c7.2-4.2,15.4-6.3,23.8-6.2c8.9,0,17.5,2.4,25.1,6.9c7.6,4.3,13.4,11.2,16.1,19.5
			c5.8-7.6,13.1-13.9,21.3-18.8c8-4.9,17.1-7.6,26.5-7.7L4510,1191.6z"/>
		<path id="path4791" inkscape:connector-curvature="0" d="M4752.8,1167.3v27.8h41.8l-10.6,12.7h-31.8v85.2c0,21,9.2,31.5,27.6,31.4
			c3.9,0.3,7.8-0.3,11.3-1.8c2.9-1.7,5.7-3.8,8.2-6.1c0,4.3-3.1,8.8-9.4,13.5c-6.1,4.7-13.5,7.2-21.2,7.1
			c-11.3,0.5-22.3-3.7-30.5-11.6c-7.8-7.8-11.7-18.5-11.7-32.2v-85.5h-13l39.5-40.6L4752.8,1167.3z"/>
		<path id="path4793" inkscape:connector-curvature="0" d="M4865.8,1191.6c13-0.4,25.8,3.3,36.6,10.6c9.8,6.8,17.6,16.2,22.3,27.2
			c4.8,11.2,7.2,23.2,7.1,35.4c-0.1,12.1-3,24-8.5,34.8c-5.3,11.1-13.4,20.6-23.6,27.6c-10.2,6.9-22.2,10.4-34.5,10.3
			c-21.8,0-38.3-7.4-49.5-22.2c-18.7-24.7-22-57.7-8.5-85.6c5.2-11.1,13.4-20.6,23.6-27.5c10.4-7,22.6-10.6,35.1-10.4L4865.8,1191.6
			z M4863,1202.6c-12.5,0.6-21.9,7-28.1,19.2c-6.2,12.2-9.1,27-8.5,44.5c0.6,17.5,4.6,31.4,11.9,42.9c7.4,11.5,17,17,28.9,16.3
			c12.5-0.6,21.9-6.8,28.3-18.6c6.4-11.8,9.2-26.5,8.5-44.2c-0.4-10.4-2.3-20.7-5.7-30.5c-2.7-8.2-7.3-15.6-13.5-21.6
			c-6-5.6-14-8.5-22.1-8L4863,1202.6z"/>
		<path id="path4795" inkscape:connector-curvature="0" d="M5017.6,1191.6c7.6,0,15,1.8,21.8,5.1c6.8,3.2,12.6,8.2,16.8,14.4
			c4.3,6.7,6.5,14.6,6.2,22.5v89.6c-0.1,2,0.3,4,1.4,5.7c2,2.1,4.1,4,6.5,5.7h-41.5c4.7-2,7.7-6.5,7.9-11.5v-78.7
			c0-23.4-10.7-35.2-32.1-35.2c-5.9,0.1-11.7,1.6-16.8,4.6c-5.3,2.8-10,6.7-13.8,11.3v98.2c-0.1,2.3,0.6,4.6,2,6.5
			c1.6,2,3.6,3.7,5.9,5H4940c4.5-2,7.4-6.4,7.6-11.3v-112.6c0-6-3.3-10.3-10-12.7l36.4-6.6v21.6c5.6-5.9,12.1-10.8,19.2-14.7
			C5000.6,1194,5009,1191.6,5017.6,1191.6L5017.6,1191.6z"/>
		<path id="path4797" inkscape:connector-curvature="0" d="M4700.4,1231.7c-3-8.6-7.8-16.4-14.2-23c-5.4-5.4-11.8-9.8-18.8-12.9
			c-14.5-6.1-30.9-5.6-45,1.4c-6.5,3.1-12.2,7.5-17,12.8v-18.5l-36.3,8c6.7,2,10,6.3,10,12.7v180.1c0.2,5.2-3,9.8-7.9,11.5h42.2
			c-4.8-1.8-8-6.4-7.9-11.6v-169.2c3.6-4.4,8-7.9,13-10.5c5.4-2.9,11.4-4.3,17.5-4.3c10.8,0.2,21,4.8,28.3,12.7
			c8.6,8.4,12.9,23,12.9,43.8c0,19.1-4,34-12,44.7c-7.4,10.4-19.5,16.4-32.2,16c-9.9,0-14.5-2-23-9.3l6.9,18.6
			c6.4,1.7,13,2.6,19.7,2.6c21.2,0,38-7.7,50.4-23c12-14.2,18.6-32.2,18.6-50.8C4706,1252.7,4704.2,1241.9,4700.4,1231.7
			L4700.4,1231.7z"/>
		<path id="path4799" inkscape:connector-curvature="0" d="M3917.1,1315.8c-5.3,2.7-11.3,4.1-17.3,3.9c-8.6,0.1-16.8-3.7-22.3-10.3
			c-6-6.9-8.9-16.4-8.9-28.8v-89.1l-36.9,7.3c6.9,2.2,10.3,6.2,10.3,12.1v69.6c0,20,4.9,34.4,14.6,43.4c8.4,8.4,19.7,13.2,31.5,13.5
			c13.1,0,25.8-4.6,35.8-13l5.3-17.7C3925.8,1310.3,3921.6,1313.4,3917.1,1315.8L3917.1,1315.8z"/>
		<path id="path4801" inkscape:connector-curvature="0" d="M3957.7,1310.4v-118.9l-36.3,7.3c2.8,0.6,5.5,1.8,7.7,3.6
			c2.2,2.3,3.2,5.4,2.8,8.5v92.3l0.5,13.1c0-0.1,0.1-0.1,0.1-0.1c-0.3,4.6,0.5,9.1,2.4,13.3c2.1,3.3,5,6,8.5,7.9l26.3-9.7
			C3961.7,1326.5,3957.6,1320.8,3957.7,1310.4L3957.7,1310.4z"/>
		<path id="path4803" inkscape:connector-curvature="0" d="M4325.2,1323c-1.1-3.1-1.5-6.4-1.4-9.7v-81c0-15.7-4.9-26.4-14.6-32.2
			c-10-5.8-21.5-8.7-33.1-8.5c-17.1,0.2-33.7,5.5-47.8,15.1l0.6,37.4c3.3-11,8.9-21.2,16.4-30c7-7.5,17-11.5,27.2-11
			c8.9,0,15.4,2.6,19.7,7.7c4.3,5.2,6.5,11.8,6.3,18.6c0,7.7-0.4,11.9-1.2,12.7c-3.1,3.4-7.1,5.8-11.5,7c-5,1.6-13.5,4.2-25.5,7.7
			c-8.6,2.2-16.9,5.4-24.7,9.5c-13.5,8.1-20.3,19.5-20.3,34.2c0.3,9,3.5,17.7,9.2,24.7c6.2,8.1,15.2,12.2,27.1,12.2
			c14.2-0.1,27.9-5.1,38.7-14.3l5.5-15.9c-8.5,8.3-19.9,13-31.8,13.1c-6.2,0.3-12.3-2.2-16.6-6.6c-4.5-5-6.8-11.6-6.4-18.3
			c-0.3-6.3,2-12.3,6.4-16.8c5.4-4.9,11.8-8.7,18.8-11.1c11-3.1,21.9-6.9,32.4-11.3v48.4c0,0,0.2,10.5,0.3,10.5
			c0.2,7.1,1,11.9,2.4,14.4c2.2,3.2,5,6,8.2,8.2l23.4-10.4c-4.2-0.8-6.8-2.2-7.7-4.3L4325.2,1323z"/>
		<path id="path4805" inkscape:connector-curvature="0" d="M4165.3,1082v49.2c0,8,2.8,20.4,19.2,20.4c15.6,0,20.4-9.9,20.4-20.4
			l-0.5-49.2c0.2-2.2-1-4.3-3-5.2h12.9c-2,1-3.2,3-3.1,5.2l-0.4,48.7c0,19-12.3,26.1-26.8,26.1c-12.8,0-29.8-6.3-29.8-25.9V1082
			c-0.1-2.3-1.5-4.3-3.6-5.2h18.6C4166.9,1077.6,4165.5,1079.7,4165.3,1082L4165.3,1082z"/>
		<path id="path4807" inkscape:connector-curvature="0" d="M4284.1,1082c0.1-2.2-1.1-4.2-3-5.2h12.1c-2,1-3.2,3-3.1,5.2v76
			c0,0-55.7-67.2-55.7-68.3v60.9c-0.1,2.3,1.2,4.3,3.3,5.2h-12.3c1.9-1,3.1-3.1,3-5.2v-64.1c0-3.4,0-3.6-1.4-5.5
			c-1.4-1.8-3.3-3.2-5.4-4.2h16.6l45.9,56.7V1082z"/>
		<path id="path4809" inkscape:connector-curvature="0" d="M4321.7,1076.8c-1.9,1-3.1,3.1-3,5.2v68.6c0,2.2,1.1,4.2,3,5.2h-17.2
			c2-1,3.2-3,3.1-5.2V1082c0.1-2.2-1.1-4.3-3.1-5.2H4321.7z"/>
		<path id="path4811" inkscape:connector-curvature="0" d="M4388.3,1082.3c1-2.8,0.8-4.4-2-5.7h12.8c-3,2-2.8,2.6-4.2,5.7
			c-1.9,4.5-28.9,76.5-28.9,76.5s-29.8-72.2-31.8-76.5c-1.1-2.7-3.3-4.8-6-5.7h21.1c-3,1.2-3,4-2.2,6.9c0.3,0.4,20.8,53.9,20.8,53.9
			s20.5-54.7,20.5-55.2V1082.3z"/>
		<path id="path4813" inkscape:connector-curvature="0" d="M4447.8,1087.1c-2.4-2.9-6-4.4-9.8-4.1l-20-0.2v26.3h19
			c1.8-0.3,3.3-1.6,4.1-3.3v12.6c-0.7-1.7-2.2-2.9-4.1-3.3h-19v34.3c4.5,0.5,9,0.7,13.5,0.7c12.5,0,17,0,21.3-7.3l-2.4,13h-46.7
			c2.2-0.8,3.6-2.9,3.5-5.2V1082c0-2.2-1.2-4.3-3.3-5.2h43.8L4447.8,1087.1L4447.8,1087.1z"/>
		<path id="path4815" inkscape:connector-curvature="0" d="M4490.5,1115.7c4.8,1.2,8.9,4.4,11.3,8.7c0,0,12.3,21.3,17.4,26.7
			c2.1,2,4.7,3.6,7.4,4.7l-11.8,0.2c-3.9-0.2-7.4-2.2-9.5-5.4c-6-8.7-10.1-15.1-14.2-21.6c-3-4.6-5.5-9.6-11.5-9.6h-6.8v31.2
			c0,2.2,1.3,4.2,3.3,5.2h-17.3c1.9-1,3.2-3,3.1-5.2V1082c0.1-2.2-1.2-4.3-3.1-5.2h21.9c23.3,0,28.3,12.1,28.3,19.4
			C4509,1108.7,4497.8,1115.1,4490.5,1115.7L4490.5,1115.7z M4472.8,1081.7v31.5c0,0,3.7,0.2,6.8,0.2c8.8,0,17.5-4.8,17.5-17
			c0.3-8.1-6-14.9-14.1-15.2c-0.5,0-1,0-1.4,0C4476.3,1081.3,4472.8,1081.6,4472.8,1081.7L4472.8,1081.7z"/>
		<path id="path4817" inkscape:connector-curvature="0" d="M4574.4,1133.1c0,14.5-13.2,23.7-25.7,23.7c-7.7-0.1-15.1-2.4-21.6-6.5
			l-0.4-17.4c2.4,8.4,8.7,19,21.1,19c8.2,0.5,15.3-5.8,15.8-14c0-0.5,0-1,0-1.5c0-11.2-8.5-13.4-19.6-19.1s-17-11.5-17-21
			c0-13.9,13-20.6,24-20.6c5.8-0.1,11.6,1.4,16.6,4.4l0.6,15.3c-1.4-5.7-7.9-15.1-18.8-15.1c-6.6-0.5-12.3,4.4-12.9,11
			c0,0.4,0,0.9,0,1.3c0,7.3,4.6,10.1,15.8,15.6C4563.6,1113.7,4574.4,1117.6,4574.4,1133.1L4574.4,1133.1z"/>
		<path id="path4819" inkscape:connector-curvature="0" d="M4599.1,1076.8c-1.9,1-3.1,3.1-3,5.2v68.6c0,2.2,1.1,4.2,3,5.2h-17.2
			c2-1,3.2-3,3.1-5.2V1082c0.1-2.2-1.1-4.3-3.1-5.2H4599.1z"/>
		<path id="path4821" inkscape:connector-curvature="0" d="M4641.9,1082.3v68.2c-0.1,2.2,1.1,4.2,3,5.2h-17.2c2-1,3.2-3,3-5.2v-68.2
			c-8.7,0-19.1,0.8-19.1,0.8c-2.6,0.4-4.9,2.1-6,4.5v-10.9h61.1v10.9c-1.2-2.4-3.4-4-6-4.5c0,0-10.5-0.8-19-0.8H4641.9z"/>
		<path id="path4823" inkscape:connector-curvature="0" d="M4735.1,1076.8c-3,1.2-5.5,3.5-6.9,6.4l-18.8,35.2v32.2
			c0,2.6,2.2,4.2,4.3,5.2h-19.8c1.9-1.1,4.3-2.5,4.3-5.2v-31.7l-22.2-36.5c-1.5-2.5-3.8-4.5-6.5-5.7h22.4c-2.7,1.2-4.9,1.8-1.9,7.2
			l16.3,28.7l15.8-30.3c1.6-3.1,0.8-4.6-2.4-5.7L4735.1,1076.8z"/>
		<path id="path4825" inkscape:connector-curvature="0" d="M4806.8,1156.8c-19.4-0.5-36.6-17.8-36.1-41.7
			c0.5-18.8,14.2-40.2,38-39.4c16.6,0.4,35.9,14.8,35.4,41.3s-20.6,40.4-37.4,39.7V1156.8z M4782.9,1114.5
			c0,25.5,12.6,36.9,24.9,36.9c14.8,0,24-13.2,24-34.2c0.2-22.4-9.2-36.9-24.2-36.9s-24.7,12.7-24.7,34V1114.5z"/>
		<path id="path4827" inkscape:connector-curvature="0" d="M4869.3,1155.8h-17.7c2.1-0.9,3.4-3,3.2-5.2V1082c0-2.2-1.2-4.3-3.2-5.2
			h46.3v10.6c-1.6-2.8-4.2-4.4-9.9-4.4c-2.8-0.2-22.2-0.5-22.2-0.5l0.2,26.6h19.2c1.8-0.3,3.3-1.6,4.1-3.3v12.6
			c-0.7-1.7-2.2-2.9-4.1-3.3h-19.2l-0.3,35.4C4865.8,1152.9,4867.2,1155,4869.3,1155.8L4869.3,1155.8z"/>
	</g>
	<text transform="matrix(1 0 0 1 656.2955 193.5484)" class="st5 st1">Student robotics is only possible with the help of our sponsors</text>
	<g id="flowRoot5011" transform="matrix(0.26458333,0,0,0.26458333,0,149)">
	</g>
	<text transform="matrix(1 0 0 1 622.501 231.0484)" class="st0 st1">Main Sponsors</text>
	<text transform="matrix(1 0 0 1 622.501 373.5484)" class="st0 st1">Event Sponsors</text>
	<rect x="613" y="170.5" class="st6" width="7" height="1"/>
</g>
</svg>
