<?xml version="1.0" encoding="utf-8"?>
<!-- Generator: Adobe Illustrator 22.1.0, SVG Export Plug-In . SVG Version: 6.00 Build 0)  -->
<svg version="1.1"
	 id="svg4107" inkscape:version="0.92.3 (2405546, 2018-03-11)" sodipodi:docname="p1-game.svg" xmlns:cc="http://creativecommons.org/ns#" xmlns:dc="http://purl.org/dc/elements/1.1/" xmlns:inkscape="http://www.inkscape.org/namespaces/inkscape" xmlns:rdf="http://www.w3.org/1999/02/22-rdf-syntax-ns#" xmlns:sodipodi="http://sodipodi.sourceforge.net/DTD/sodipodi-0.dtd" xmlns:svg="http://www.w3.org/2000/svg"
	 xmlns="http://www.w3.org/2000/svg" xmlns:xlink="http://www.w3.org/1999/xlink" x="0px" y="0px" viewBox="0 0 595.3 419.5"
	 style="enable-background:new 0 0 595.3 419.5;" xml:space="preserve">
<style type="text/css">
	.st0{font-family:'Oswald-Regular';}
	.st1{font-size:32px;}
	.st2{enable-background:new    ;}
	.st3{font-family:'OpenSans-Regular';}
	.st4{font-size:11.4922px;}
	.st5{fill:#FFFFFF;}
	.st6{fill:#FFFFDD;stroke:#BBBBBB;stroke-width:2.000000e-02;}
	.st7{fill:#008000;stroke:#000000;stroke-width:2.000000e-02;}
	.st8{fill:#C0C0C0;stroke:#000000;stroke-width:1.000000e-02;}
	.st9{fill:none;stroke:#555555;stroke-width:2.000000e-02;}
	.st10{fill:#DDDDDD;}
	.st11{fill:none;stroke:#333333;stroke-width:2.000000e-02;stroke-dasharray:8.000000e-02,8.000000e-02;}
	.st12{font-family:'ArialMT';}
	.st13{font-size:6.4394px;}
	.st14{fill:#0023FF;}
</style>
<sodipodi:namedview  bordercolor="#666666" borderopacity="1.0" id="base" inkscape:current-layer="layer1" inkscape:cx="287.53454" inkscape:cy="247.84176" inkscape:document-units="mm" inkscape:pageopacity="0.0" inkscape:pageshadow="2" inkscape:snap-text-baseline="true" inkscape:window-height="987" inkscape:window-maximized="1" inkscape:window-width="1680" inkscape:window-x="-8" inkscape:window-y="-8" inkscape:zoom="0.98994949" pagecolor="#ffffff" showgrid="true" showguides="false">
	<inkscape:grid  id="grid4670" type="xygrid"></inkscape:grid>
</sodipodi:namedview>
<g>
	<text transform="matrix(1 0 0 1 22.501 189.7774)" class="st0 st1">CALDERA</text>
	<text transform="matrix(1 0 0 1 22.5005 219.0572)" class="st2"><tspan x="0" y="0" class="st3 st4">Our game this year, Caldera, challenges </tspan><tspan x="0" y="13.8" class="st3 st4">teams to control scoring zones with tokens </tspan><tspan x="0" y="27.6" class="st3 st4">while navigating an arena with raised platforms.</tspan><tspan x="0" y="41.4" class="st3 st4">Twenty-five scoring zones are arranged in a grid, </tspan><tspan x="0" y="55.2" class="st3 st4">varying in value from two points for each of the </tspan><tspan x="0" y="69" class="st3 st4">outermost 16, a ring of eight on a raised </tspan><tspan x="0" y="82.7" class="st3 st4">“volcano” worth seven points apiece, to the the </tspan><tspan x="0" y="96.5" class="st3 st4">central “caldera” which is worth thirty points.</tspan></text>
	<g>
		<rect id="rect5243" x="1500.5" y="117.3" class="st5" width="595.3" height="419.5"/>
		<g>
			<g>
				<g id="g5259" transform="translate(1.15,8.35)">
				</g>
				<g id="g5267" transform="translate(1.4,8.55)">
				</g>
				<g id="g5273" transform="translate(2.45,7.75)">
				</g>
				<g>
					<g>
						<g id="start-area">
							<g id="start-zone-with-robot">
								<g id="use5208">
									<g id="start-zone">
										<rect id="rect5205" x="16.8" y="3" class="st6" width="2.8" height="2.8"/>
									</g>
								</g>
								<g id="use5213" transform="translate(0.5 0.5)">
									
										<rect id="robot" x="17.8" y="3.7" transform="matrix(0.7071 -0.7071 0.7071 0.7071 2.2184 14.2058)" class="st7" width="1" height="1.4"/>
								</g>
							</g>
							<g id="use5215" transform="translate(0.5 1.3)">
								<rect id="token" x="18.1" y="6.6" class="st8" width="0.3" height="0.3"/>
							</g>
							<g id="use5217" transform="translate(0.5 1.5)">
								<rect id="token_1_" x="18.1" y="7.1" class="st8" width="0.3" height="0.3"/>
							</g>
							<g id="use5219" transform="translate(0.5 1.7)">
								<rect id="token_2_" x="18.1" y="7.7" class="st8" width="0.3" height="0.3"/>
							</g>
							<g id="use5221" transform="translate(0.5 1.9)">
								<rect id="token_3_" x="18.1" y="8.3" class="st8" width="0.3" height="0.3"/>
							</g>
							<g id="use5275" transform="translate(0.5 2.1)">
								<rect id="token_4_" x="18.1" y="8.8" class="st8" width="0.3" height="0.3"/>
							</g>
						</g>
						<g>
							<g>
								<g id="start-area_1_">
									<g id="start-zone-with-robot_1_">
										<g id="use5208_1_">
											<g id="start-zone_1_">
												<rect id="rect5205_1_" x="36.7" y="3" class="st6" width="2.8" height="2.8"/>
											</g>
										</g>
										<g id="use5213_1_" transform="translate(0.5 0.5)">
											
												<rect id="robot_1_" x="37.4" y="3.9" transform="matrix(0.7071 -0.7071 0.7071 0.7071 8.0302 28.2366)" class="st7" width="1.4" height="1"/>
										</g>
									</g>
									<g id="use5215_1_" transform="translate(0.5 1.3)">
										<rect id="token_5_" x="35.7" y="4.3" class="st8" width="0.3" height="0.3"/>
									</g>
									<g id="use5217_1_" transform="translate(0.5 1.5)">
										<rect id="token_6_" x="35.1" y="4.3" class="st8" width="0.3" height="0.3"/>
									</g>
									<g id="use5219_1_" transform="translate(0.5 1.7)">
										<rect id="token_7_" x="34.6" y="4.3" class="st8" width="0.3" height="0.3"/>
									</g>
									<g id="use5221_1_" transform="translate(0.5 1.9)">
										<rect id="token_8_" x="34" y="4.3" class="st8" width="0.3" height="0.3"/>
									</g>
									<g id="use5277" transform="rotate(90,4,4)">
										<rect id="token_9_" x="33.4" y="4.3" class="st8" width="0.3" height="0.3"/>
									</g>
								</g>
								<g>
									<g id="layer1" transform="translate(0,-149)" inkscape:groupmode="layer" inkscape:label="Layer 1">
										<g id="start-area_2_">
											<g id="start-zone-with-robot_2_">
												<g id="use5208_2_">
													<g id="start-zone_2_">
														<rect id="rect5205_2_" x="36.7" y="22.9" class="st6" width="2.8" height="2.8"/>
													</g>
												</g>
												<g id="use5213_2_" transform="translate(0.5 0.5)">
													
														<rect id="robot_2_" x="37.6" y="23.6" transform="matrix(0.7071 -0.7071 0.7071 0.7071 -6.0007 34.0484)" class="st7" width="1" height="1.4"/>
												</g>
											</g>
											<g id="use5215_2_" transform="translate(0.5 1.3)">
												<rect id="token_10_" x="38" y="21.9" class="st8" width="0.3" height="0.3"/>
											</g>
											<g id="use5217_2_" transform="translate(0.5 1.5)">
												<rect id="token_11_" x="38" y="21.3" class="st8" width="0.3" height="0.3"/>
											</g>
											<g id="use5219_2_" transform="translate(0.5 1.7)">
												<rect id="token_12_" x="38" y="20.7" class="st8" width="0.3" height="0.3"/>
											</g>
											<g id="use5221_2_" transform="translate(0.5 1.9)">
												<rect id="token_13_" x="38" y="20.2" class="st8" width="0.3" height="0.3"/>
											</g>
											<g id="use5279" transform="rotate(180,4,4)">
												<rect id="token_14_" x="38" y="19.6" class="st8" width="0.3" height="0.3"/>
											</g>
										</g>
										<g id="g5532" transform="matrix(0.11358428,0,0,0.11358428,92.897917,156.26268)">
											<g id="arena" transform="translate(1,1)">
												<g id="start-area_3_">
													<g id="start-zone-with-robot_3_">
														<g id="use5208_3_">
															<g id="start-zone_3_">
																<rect id="rect5205_3_" x="16.8" y="22.9" class="st6" width="2.8" height="2.8"/>
															</g>
														</g>
														<g id="use5213_3_" transform="translate(0.5 0.5)">
															
																<rect id="robot_3_" x="17.5" y="23.8" transform="matrix(0.7071 -0.7071 0.7071 0.7071 -11.8124 20.0176)" class="st7" width="1.4" height="1"/>
														</g>
													</g>
													<g id="use5215_3_" transform="translate(0.5 1.3)">
														<rect id="token_15_" x="20.4" y="24.1" class="st8" width="0.3" height="0.3"/>
													</g>
													<g id="use5217_3_" transform="translate(0.5 1.5)">
														<rect id="token_16_" x="21" y="24.1" class="st8" width="0.3" height="0.3"/>
													</g>
													<g id="use5219_3_" transform="translate(0.5 1.7)">
														<rect id="token_17_" x="21.5" y="24.1" class="st8" width="0.3" height="0.3"/>
													</g>
													<g id="use5221_3_" transform="translate(0.5 1.9)">
														<rect id="token_18_" x="22.1" y="24.1" class="st8" width="0.3" height="0.3"/>
													</g>
													<g id="use5281" transform="rotate(-90,4,4)">
														<rect id="token_19_" x="22.7" y="24.1" class="st8" width="0.3" height="0.3"/>
													</g>
												</g>
												<g id="g5287" transform="translate(7.5,8.35)">
												</g>
												<g id="g5293" transform="translate(8.35,7.5)">
												</g>
												<rect id="rect5295" x="16.8" y="3" class="st9" width="22.7" height="22.7"/>
												<g id="g5301" transform="translate(4,-0.35)">
												</g>
												<g id="g5307" transform="translate(-0.35,4)">
												</g>
												<g id="use5309" transform="translate(4,4)">
													<g id="volcano">
														<path id="path5229" class="st10" d="M23.1,9.2v10.2h10.2V9.2H23.1l3.4,3.4h3.4V16h-3.4v-3.4"/>
													</g>
												</g>
												<g id="g5315" transform="translate(4,3.2)">
												</g>
												<g id="g5321" transform="translate(3.2,4)">
												</g>
												<g id="g5327" transform="translate(4,2)">
												</g>
												<g id="g5333" transform="translate(2,4)">
												</g>
												<g id="g5385" transform="translate(4,4)">
													<g id="use5335">
														<g id="zone">
															<rect id="rect5226" x="22.5" y="8.6" class="st11" width="3.4" height="3.4"/>
														</g>
													</g>
													<g id="use5337" transform="translate(-1.2,-1.2)">
														<g id="zone_1_">
															<rect id="rect5226_1_" x="19.1" y="5.2" class="st11" width="3.4" height="3.4"/>
														</g>
													</g>
													<g id="use5339" transform="translate(-1.2)">
														<g id="zone_2_">
															<rect id="rect5226_2_" x="19.1" y="8.6" class="st11" width="3.4" height="3.4"/>
														</g>
													</g>
													<g id="use5341" transform="translate(-1.2,1.2)">
														<g id="zone_3_">
															<rect id="rect5226_3_" x="19.1" y="12" class="st11" width="3.4" height="3.4"/>
														</g>
													</g>
													<g id="use5343" transform="translate(0,1.2)">
														<g id="zone_4_">
															<rect id="rect5226_4_" x="22.5" y="12" class="st11" width="3.4" height="3.4"/>
														</g>
													</g>
													<g id="use5345" transform="translate(1.2,1.2)">
														<g id="zone_5_">
															<rect id="rect5226_5_" x="25.9" y="12" class="st11" width="3.4" height="3.4"/>
														</g>
													</g>
													<g id="use5347" transform="translate(1.2)">
														<g id="zone_6_">
															<rect id="rect5226_6_" x="25.9" y="8.6" class="st11" width="3.4" height="3.4"/>
														</g>
													</g>
													<g id="use5349" transform="translate(1.2,-1.2)">
														<g id="zone_7_">
															<rect id="rect5226_7_" x="25.9" y="5.2" class="st11" width="3.4" height="3.4"/>
														</g>
													</g>
													<g id="use5351" transform="translate(0,-1.2)">
														<g id="zone_8_">
															<rect id="rect5226_8_" x="22.5" y="5.2" class="st11" width="3.4" height="3.4"/>
														</g>
													</g>
													<g id="use5353" transform="translate(0,-2.4)">
														<g id="zone_9_">
															<rect id="rect5226_9_" x="22.5" y="1.8" class="st11" width="3.4" height="3.4"/>
														</g>
													</g>
													<g id="use5355" transform="translate(1.2,-2.4)">
														<g id="zone_10_">
															<rect id="rect5226_10_" x="25.9" y="1.8" class="st11" width="3.4" height="3.4"/>
														</g>
													</g>
													<g id="use5357" transform="translate(2.4,-2.4)">
														<g id="zone_11_">
															<rect id="rect5226_11_" x="29.3" y="1.8" class="st11" width="3.4" height="3.4"/>
														</g>
													</g>
													<g id="use5359" transform="translate(2.4,-1.2)">
														<g id="zone_12_">
															<rect id="rect5226_12_" x="29.3" y="5.2" class="st11" width="3.4" height="3.4"/>
														</g>
													</g>
													<g id="use5361" transform="translate(2.4)">
														<g id="zone_13_">
															<rect id="rect5226_13_" x="29.3" y="8.6" class="st11" width="3.4" height="3.4"/>
														</g>
													</g>
													<g id="use5363" transform="translate(2.4,1.2)">
														<g id="zone_14_">
															<rect id="rect5226_14_" x="29.3" y="12" class="st11" width="3.4" height="3.4"/>
														</g>
													</g>
													<g id="use5365" transform="translate(2.4,2.4)">
														<g id="zone_15_">
															<rect id="rect5226_15_" x="29.3" y="15.4" class="st11" width="3.4" height="3.4"/>
														</g>
													</g>
													<g id="use5367" transform="translate(1.2,2.4)">
														<g id="zone_16_">
															<rect id="rect5226_16_" x="25.9" y="15.4" class="st11" width="3.4" height="3.4"/>
														</g>
													</g>
													<g id="use5369" transform="translate(0,2.4)">
														<g id="zone_17_">
															<rect id="rect5226_17_" x="22.5" y="15.4" class="st11" width="3.4" height="3.4"/>
														</g>
													</g>
													<g id="use5371" transform="translate(-1.2,2.4)">
														<g id="zone_18_">
															<rect id="rect5226_18_" x="19.1" y="15.4" class="st11" width="3.4" height="3.4"/>
														</g>
													</g>
													<g id="use5373" transform="translate(-2.4,2.4)">
														<g id="zone_19_">
															<rect id="rect5226_19_" x="15.7" y="15.4" class="st11" width="3.4" height="3.4"/>
														</g>
													</g>
													<g id="use5375" transform="translate(-2.4,1.2)">
														<g id="zone_20_">
															<rect id="rect5226_20_" x="15.7" y="12" class="st11" width="3.4" height="3.4"/>
														</g>
													</g>
													<g id="use5377" transform="translate(-2.4)">
														<g id="zone_21_">
															<rect id="rect5226_21_" x="15.7" y="8.6" class="st11" width="3.4" height="3.4"/>
														</g>
													</g>
													<g id="use5379" transform="translate(-2.4,-1.2)">
														<g id="zone_22_">
															<rect id="rect5226_22_" x="15.7" y="5.2" class="st11" width="3.4" height="3.4"/>
														</g>
													</g>
													<g id="use5381" transform="translate(-2.4,-2.4)">
														<g id="zone_23_">
															<rect id="rect5226_23_" x="15.7" y="1.8" class="st11" width="3.4" height="3.4"/>
														</g>
													</g>
													<g id="use5383" transform="translate(-1.2,-2.4)">
														<g id="zone_24_">
															<rect id="rect5226_24_" x="19.1" y="1.8" class="st11" width="3.4" height="3.4"/>
														</g>
													</g>
												</g>
											</g>
											<g id="arena-space" transform="scale(100)">
												<g id="legend" transform="translate(2.2,10.5)">
													<g id="g5392">
														<g id="start-zone-with-robot_4_">
															<g id="use5208_4_">
																<g id="start-zone_4_">
																	<rect id="rect5205_4_" x="17.3" y="18.7" class="st6" width="1.4" height="1.4"/>
																</g>
															</g>
															<g id="use5388" transform="scale(0.5)">
																
																	<rect id="robot_4_" x="17.8" y="19.1" transform="matrix(0.7071 -0.7071 0.7071 0.7071 -8.4598 18.4501)" class="st7" width="0.5" height="0.7"/>
															</g>
														</g>
														<text id="text5390" transform="matrix(8.804057e-02 0 0 8.804057e-02 19.4588 19.4372)" class="st12 st13">Robot starting area</text>
													</g>
													<g id="g5398" transform="translate(0,0.75)">
														<g id="use5394">
															<rect id="token_20_" x="17.9" y="20.7" class="st8" width="0.3" height="0.3"/>
														</g>
														<text id="text5396" transform="matrix(8.804057e-02 0 0 8.804057e-02 19.4588 20.814)" class="st12 st13">Token</text>
													</g>
													<g id="g5404" transform="translate(4)">
														<g id="use5400" transform="scale(0.139)">
															<g id="volcano_1_">
																<path id="path5229_1_" class="st10" d="M24.7,18.7v1.4h1.4v-1.4H24.7l0.5,0.5h0.5v0.5h-0.5v-0.5"/>
															</g>
														</g>
														<text id="text5402" transform="matrix(8.804057e-02 0 0 8.804057e-02 26.7968 19.4372)" class="st12 st13">Raised platform</text>
													</g>
													<g id="g5410" transform="translate(4,0.75)">
														<g id="use5406" transform="scale(0.417)">
															<g id="zone_25_">
																<rect id="rect5226_25_" x="24.7" y="20.1" class="st11" width="1.4" height="1.4"/>
															</g>
														</g>
														<text id="text5408" transform="matrix(8.804057e-02 0 0 8.804057e-02 26.7968 20.814)" class="st12 st13">Scoring zone</text>
													</g>
												</g>
											</g>
										</g>
									</g>
								</g>
							</g>
						</g>
					</g>
				</g>
			</g>
		</g>
	</g>
	<text transform="matrix(1 0 0 1 22.5005 349.891)" class="st2"><tspan x="0" y="0" class="st3 st4">Teams can claim one of the scoring zones by </tspan><tspan x="0" y="13.8" class="st3 st4">placing more of their tokens in it than any </tspan><tspan x="0" y="27.6" class="st3 st4">opposing team. Additionally the value of any</tspan><tspan x="0" y="41.4" class="st3 st4"> scoring zone can be multiplied by careful </tspan><tspan x="0" y="55.2" class="st3 st4">position of the robot at the end of the match.</tspan><tspan x="0" y="96.5" class="st3 st4">Full details available at </tspan><tspan x="123.6" y="96.5" class="st14 st3 st4" style="text-decoration: underline;">srobo.org/rules/</tspan></text>
</g>
</svg>
